HIERARCHY
ROOT Hips
{
	OFFSET 0.00000 0.00000 0.00000
	CHANNELS 6 Xposition Yposition Zposition Zrotation Yrotation Xrotation 
	JOINT LHipJoint
	{
		OFFSET 0 0 0
		CHANNELS 3 Zrotation Yrotation Xrotation
		JOINT LeftUpLeg
		{
			OFFSET 3.13874 -1.57224 1.49786
			CHANNELS 3 Zrotation Yrotation Xrotation
			JOINT LeftLeg
			{
				OFFSET 2.10955 -5.79594 0.00000
				CHANNELS 3 Zrotation Yrotation Xrotation
				JOINT LeftFoot
				{
					OFFSET 2.41843 -6.64458 0.00000
					CHANNELS 3 Zrotation Yrotation Xrotation
					JOINT LeftToeBase
					{
						OFFSET 0.04713 -0.12948 1.66229
						CHANNELS 3 Zrotation Yrotation Xrotation
						End Site
						{
							OFFSET 0.00000 -0.00000 0.85167
						}
					}
				}
			}
		}
	}
	JOINT RHipJoint
	{
		OFFSET 0 0 0
		CHANNELS 3 Zrotation Yrotation Xrotation
		JOINT RightUpLeg
		{
			OFFSET -3.13988 -1.57224 1.49786
			CHANNELS 3 Zrotation Yrotation Xrotation
			JOINT RightLeg
			{
				OFFSET -2.15006 -5.90725 0.00000
				CHANNELS 3 Zrotation Yrotation Xrotation
				JOINT RightFoot
				{
					OFFSET -2.34496 -6.44273 0.00000
					CHANNELS 3 Zrotation Yrotation Xrotation
					JOINT RightToeBase
					{
						OFFSET -0.08699 -0.23900 1.55223
						CHANNELS 3 Zrotation Yrotation Xrotation
						End Site
						{
							OFFSET -0.00000 -0.00000 0.80281
						}
					}
				}
			}
		}
	}
	JOINT LowerBack
	{
		OFFSET 0 0 0
		CHANNELS 3 Zrotation Yrotation Xrotation
		JOINT Spine
		{
			OFFSET 0.01292 1.96517 -0.16495
			CHANNELS 3 Zrotation Yrotation Xrotation
			JOINT Spine1
			{
				OFFSET 0.02122 1.88666 0.19706
				CHANNELS 3 Zrotation Yrotation Xrotation
				JOINT Neck
				{
					OFFSET 0 0 0
					CHANNELS 3 Zrotation Yrotation Xrotation
					JOINT Neck1
					{
						OFFSET -0.01683 1.81591 0.07903
						CHANNELS 3 Zrotation Yrotation Xrotation
						JOINT Head
						{
							OFFSET 0.00815 1.74013 -0.47700
							CHANNELS 3 Zrotation Yrotation Xrotation
							End Site
							{
								OFFSET -0.00204 1.83225 -0.16933
							}
						}
					}
				}
				JOINT LeftShoulder
				{
					OFFSET 0 0 0
					CHANNELS 3 Zrotation Yrotation Xrotation
					JOINT LeftArm
					{
						OFFSET 3.38482 1.41533 0.19802
						CHANNELS 3 Zrotation Yrotation Xrotation
						JOINT LeftForeArm
						{
							OFFSET 4.32712 -0.00000 0.00000
							CHANNELS 3 Zrotation Yrotation Xrotation
							JOINT LeftHand
							{
								OFFSET 3.28587 -0.00000 -0.00000
								CHANNELS 3 Zrotation Yrotation Xrotation
								JOINT LeftFingerBase
								{
									OFFSET 0 0 0
									CHANNELS 3 Zrotation Yrotation Xrotation
									JOINT LeftHandIndex1
									{
										OFFSET 0.43316 -0.00000 -0.00000
										CHANNELS 3 Zrotation Yrotation Xrotation
										End Site
										{
											OFFSET 0.34922 -0.00000 -0.00000
										}
									}
								}
								JOINT LThumb
								{
									OFFSET 0 0 0
									CHANNELS 3 Zrotation Yrotation Xrotation
									End Site
									{
										OFFSET 0.35456 -0.00000 0.35456
									}
								}
							}
						}
					}
				}
				JOINT RightShoulder
				{
					OFFSET 0 0 0
					CHANNELS 3 Zrotation Yrotation Xrotation
					JOINT RightArm
					{
						OFFSET -3.09725 1.62858 -0.14144
						CHANNELS 3 Zrotation Yrotation Xrotation
						JOINT RightForeArm
						{
							OFFSET -4.29104 -0.00000 0.00000
							CHANNELS 3 Zrotation Yrotation Xrotation
							JOINT RightHand
							{
								OFFSET -3.22720 -0.00000 -0.00000
								CHANNELS 3 Zrotation Yrotation Xrotation
								JOINT RightFingerBase
								{
									OFFSET 0 0 0
									CHANNELS 3 Zrotation Yrotation Xrotation
									JOINT RightHandIndex1
									{
										OFFSET -0.54362 -0.00000 -0.00000
										CHANNELS 3 Zrotation Yrotation Xrotation
										End Site
										{
											OFFSET -0.43828 -0.00000 -0.00000
										}
									}
								}
								JOINT RThumb
								{
									OFFSET 0 0 0
									CHANNELS 3 Zrotation Yrotation Xrotation
									End Site
									{
										OFFSET -0.44497 -0.00000 0.44497
									}
								}
							}
						}
					}
				}
			}
		}
	}
}
MOTION
Frames: 5
Frame Time: .0083333
-4.2451 15.7031 -3.8145 687.3550 72.7712 333.6610 0.0000 0.0000 0.0000 -10.9638 2.5262 1.4811 6.6725 15.0498 47.6246 -0.7834 15.5059 -7.2592 11.8952 -18.3460 -65.6564 0.0000 0.0000 0.0000 41.5638 6.6759 -5.8587 -0.0822 -1.8494 5.0895 -0.8360 -6.8495 -21.0738 -0.0335 1.1822 -3.2502 0.9747 -1.1860 8.6953 4.0577 -0.4141 -12.1616 4.2327 0.2817 -18.9005 3.3575 -2.4564 -12.9658 5.8674 -5.7299 32.8999 0.9481 -0.9515 13.3646 0.0000 0.0000 0.0000 -86.7054 19.9937 46.5996 17.5930 -27.6329 -4.3588 -0.0000 -0.0000 12.8811 19.9309 28.8738 9.9315 -7.1250 0.0000 -0.0000 -12.5838 59.9327 -4.6299 0.0000 0.0000 0.0000 72.2427 -34.4641 37.0404 -13.8887 22.5753 -2.7852 0.0000 -0.0000 -12.4676 -13.2910 -21.5604 4.9613 7.1250 -0.0000 -0.0000 15.6017 -51.4103 -2.5149
-4.0685 15.6587 -3.7142 685.1280 72.3574 331.7450 0.0000 0.0000 0.0000 -9.2197 2.9248 -2.5079 7.7498 15.9321 51.6563 -0.7421 15.6938 -10.6512 11.4653 -18.1554 -64.2837 0.0000 0.0000 0.0000 42.7481 6.2742 -5.0630 -0.0650 -1.6453 4.5262 -0.8845 -6.4322 -21.2224 -0.0394 1.2816 -3.5241 1.7590 -1.0854 8.8040 4.1920 -0.0902 -12.2219 3.8771 0.3434 -19.0901 2.9183 -2.6405 -12.8104 5.6916 -5.8118 32.9049 0.9436 -1.0707 13.3339 -0.0000 -0.0000 0.0000 -86.6194 19.7454 45.5644 17.6131 -27.6589 -4.3681 -0.0000 -0.0000 12.6970 20.9250 30.0563 10.8413 -7.1250 0.0000 -0.0000 -12.2371 61.3458 -4.9119 -0.0000 -0.0000 0.0000 71.3677 -34.0503 39.1600 -15.0272 24.1839 -3.2371 0.0000 -0.0000 -13.8500 -14.8668 -21.6244 5.5873 7.1250 -0.0000 -0.0000 14.1043 -51.7360 -2.3790
-3.9037 15.6108 -3.6164 682.6400 71.8887 329.6450 0.0000 0.0000 0.0000 -7.5244 2.9597 -6.6776 8.7294 16.6304 55.1495 -0.6825 16.2187 -13.9411 11.7228 -18.2710 -65.1076 0.0000 0.0000 0.0000 44.0240 5.9910 -4.2871 -0.0482 -1.4174 3.8980 -0.9230 -6.1638 -21.3885 -0.0408 1.3038 -3.5852 2.5567 -0.9785 8.9438 4.4020 0.2703 -12.3153 3.5964 0.4300 -19.3469 2.5756 -2.7294 -12.4046 5.5834 -5.7693 32.7058 0.9673 -1.1273 13.1596 -0.0000 0.0000 0.0000 -86.6190 19.4738 44.1171 17.4906 -27.5000 -4.3115 -0.0000 -0.0000 12.8300 23.0026 30.1581 12.0395 -7.1250 0.0000 -0.0000 -9.9341 61.9708 -4.1229 -0.0000 0.0000 0.0000 70.5058 -33.2484 40.8523 -15.7099 25.1257 -3.5219 0.0000 -0.0000 -14.7561 -17.2346 -19.6863 5.9658 7.1250 -0.0000 -0.0000 11.0662 -50.1894 -1.4309
-3.7314 15.5736 -3.5254 680.6100 71.3767 327.8220 0.0000 0.0000 0.0000 -6.0971 2.8671 -10.7532 9.5864 17.1706 58.0968 -0.1964 13.7314 -17.0120 11.3774 -18.1149 -64.0013 0.0000 0.0000 0.0000 45.1167 5.5004 -3.4450 -0.0357 -1.2204 3.3556 -0.9798 -5.6971 -21.5889 -0.0335 1.1820 -3.2499 3.2289 -0.8166 9.1021 4.6285 0.6787 -12.2990 3.3870 0.5508 -19.4672 1.9525 -2.8983 -11.9237 5.4698 -5.7663 32.2347 1.0272 -1.2547 12.8624 -0.0000 0.0000 0.0000 -86.7035 18.9648 42.5829 17.2599 -27.1991 -4.2054 -0.0000 -0.0000 12.7992 25.6076 30.1436 13.5327 -7.1250 0.0000 -0.0000 -6.8687 62.6313 -2.9496 -0.0000 0.0000 0.0000 69.6659 -32.0808 42.3120 -16.1490 25.7223 -3.7104 0.0000 -0.0000 -15.5620 -20.0101 -18.3024 6.5240 7.1250 -0.0000 -0.0000 7.9542 -49.2076 -0.8301
-3.5558 15.5450 -3.4383 679.7100 71.0856 326.9970 0.0000 0.0000 0.0000 -5.3802 2.5383 -14.6298 10.2541 17.5503 60.3343 0.1992 11.8933 -19.3803 11.1956 -18.0295 -63.4152 0.0000 0.0000 0.0000 45.6978 4.9112 -2.5550 -0.0246 -1.0118 2.7812 -1.0402 -5.1543 -21.7815 -0.0322 1.1584 -3.1847 3.4644 -0.6218 9.2990 4.7523 1.0270 -12.2376 3.3138 0.6897 -19.5421 1.3249 -3.0046 -12.1090 5.3511 -5.7428 32.5357 1.0963 -1.3205 13.0389 0.0000 0.0000 0.0000 -86.8718 18.4299 40.8058 17.1152 -27.0094 -4.1395 -0.0000 -0.0000 12.5847 27.8404 30.4102 14.9674 -7.1250 0.0000 -0.0000 -4.3104 63.5048 -1.9365 0.0000 0.0000 0.0000 68.9289 -30.5720 43.5224 -16.4309 26.1014 -3.8336 0.0000 -0.0000 -16.2053 -22.7108 -18.3899 7.5217 7.1250 -0.0000 -0.0000 5.3606 -49.7238 -0.6259
